<svg width="120" height="120" viewBox="0 0 120 120" fill="none" xmlns="http://www.w3.org/2000/svg">
<g clip-path="url(#clip0_1_669)">
<path d="M22.915 86.6052C17.765 81.1352 15 75.0002 15 65.0552C15 47.5552 27.285 31.8702 45.15 24.1152L49.615 31.0052C32.94 40.0252 29.68 51.7302 28.38 59.1102C31.065 57.7202 34.58 57.2352 38.025 57.5552C47.045 58.3902 54.155 65.7952 54.155 75.0002C54.155 79.6415 52.3113 84.0927 49.0294 87.3746C45.7475 90.6565 41.2963 92.5002 36.655 92.5002C31.29 92.5002 26.16 90.0502 22.915 86.6052ZM72.915 86.6052C67.765 81.1352 65 75.0002 65 65.0552C65 47.5552 77.285 31.8702 95.15 24.1152L99.615 31.0052C82.94 40.0252 79.68 51.7302 78.38 59.1102C81.065 57.7202 84.58 57.2352 88.025 57.5552C97.045 58.3902 104.155 65.7952 104.155 75.0002C104.155 79.6415 102.311 84.0927 99.0294 87.3746C95.7475 90.6565 91.2963 92.5002 86.655 92.5002C81.29 92.5002 76.16 90.0502 72.915 86.6052Z" fill="white"/>
</g>
<defs>
<clipPath id="clip0_1_669">
<rect width="120" height="120" fill="white"/>
</clipPath>
</defs>
</svg>
