<svg width="32" height="32" viewBox="0 0 32 32" fill="none" xmlns="http://www.w3.org/2000/svg">
<g clip-path="url(#clip0_1_447)">
<path d="M25.8347 16.5544L11.7027 25.9758C11.6023 26.0426 11.4857 26.0809 11.3652 26.0867C11.2448 26.0924 11.125 26.0654 11.0187 26.0085C10.9124 25.9516 10.8235 25.8669 10.7615 25.7634C10.6995 25.66 10.6667 25.5417 10.6667 25.4211V6.57843C10.6667 6.45784 10.6995 6.33953 10.7615 6.23609C10.8235 6.13265 10.9124 6.04796 11.0187 5.99104C11.125 5.93413 11.2448 5.90711 11.3652 5.91287C11.4857 5.91863 11.6023 5.95696 11.7027 6.02377L25.8347 15.4451C25.926 15.506 26.0009 15.5885 26.0526 15.6852C26.1044 15.782 26.1315 15.89 26.1315 15.9998C26.1315 16.1095 26.1044 16.2176 26.0526 16.3143C26.0009 16.4111 25.926 16.4936 25.8347 16.5544Z" fill="white"/>
</g>
<defs>
<clipPath id="clip0_1_447">
<rect width="32" height="32" fill="white"/>
</clipPath>
</defs>
</svg>
