<svg width="10" height="11" viewBox="0 0 10 11" fill="none" xmlns="http://www.w3.org/2000/svg">
<g clip-path="url(#clip0_1_703)">
<path d="M7.65167 7.90849L5 10.5549L2.34834 7.90849C1.82389 7.38508 1.46674 6.71822 1.32205 5.99223C1.17736 5.26624 1.25163 4.51374 1.53546 3.82987C1.81929 3.14601 2.29993 2.5615 2.91662 2.15027C3.5333 1.73903 4.25832 1.51953 5 1.51953C5.74168 1.51953 6.4667 1.73903 7.08339 2.15027C7.70007 2.5615 8.18072 3.14601 8.46455 3.82987C8.74838 4.51374 8.82264 5.26624 8.67795 5.99223C8.53326 6.71822 8.17611 7.38508 7.65167 7.90849ZM5 6.09376C5.22102 6.09376 5.43298 6.00613 5.58926 5.85016C5.74554 5.69419 5.83333 5.48265 5.83333 5.26207C5.83333 5.0415 5.74554 4.82996 5.58926 4.67398C5.43298 4.51801 5.22102 4.43039 5 4.43039C4.77899 4.43039 4.56703 4.51801 4.41075 4.67398C4.25447 4.82996 4.16667 5.0415 4.16667 5.26207C4.16667 5.48265 4.25447 5.69419 4.41075 5.85016C4.56703 6.00613 4.77899 6.09376 5 6.09376Z" fill="black"/>
</g>
<defs>
<clipPath id="clip0_1_703">
<rect width="10" height="9.9802" fill="white" transform="translate(0 0.6875)"/>
</clipPath>
</defs>
</svg>
