<svg width="10" height="10" viewBox="0 0 10 10" fill="none" xmlns="http://www.w3.org/2000/svg">
<g clip-path="url(#clip0_1_410)">
<path d="M7.65167 7.23562L5 9.88729L2.34834 7.23562C1.82389 6.71117 1.46674 6.04298 1.32205 5.31556C1.17736 4.58813 1.25163 3.83413 1.53546 3.14891C1.81929 2.46369 2.29993 1.87802 2.91662 1.46597C3.5333 1.05392 4.25832 0.833984 5 0.833984C5.74168 0.833984 6.4667 1.05392 7.08339 1.46597C7.70007 1.87802 8.18072 2.46369 8.46455 3.14891C8.74838 3.83413 8.82264 4.58813 8.67795 5.31556C8.53326 6.04298 8.17611 6.71117 7.65167 7.23562ZM5 5.41729C5.22102 5.41729 5.43298 5.32949 5.58926 5.17321C5.74554 5.01693 5.83333 4.80497 5.83333 4.58395C5.83333 4.36294 5.74554 4.15098 5.58926 3.9947C5.43298 3.83842 5.22102 3.75062 5 3.75062C4.77899 3.75062 4.56703 3.83842 4.41075 3.9947C4.25447 4.15098 4.16667 4.36294 4.16667 4.58395C4.16667 4.80497 4.25447 5.01693 4.41075 5.17321C4.56703 5.32949 4.77899 5.41729 5 5.41729Z" fill="black"/>
</g>
<defs>
<clipPath id="clip0_1_410">
<rect width="10" height="10" fill="white"/>
</clipPath>
</defs>
</svg>
