<svg width="10" height="11" viewBox="0 0 10 11" fill="none" xmlns="http://www.w3.org/2000/svg">
<g clip-path="url(#clip0_1_709)">
<path d="M7.65167 7.75029L5 10.3967L2.34834 7.75029C1.82389 7.22688 1.46674 6.56001 1.32205 5.83403C1.17736 5.10804 1.25163 4.35553 1.53546 3.67167C1.81929 2.98781 2.29993 2.4033 2.91662 1.99206C3.5333 1.58083 4.25832 1.36133 5 1.36133C5.74168 1.36133 6.4667 1.58083 7.08339 1.99206C7.70007 2.4033 8.18072 2.98781 8.46455 3.67167C8.74838 4.35553 8.82264 5.10804 8.67795 5.83403C8.53326 6.56001 8.17611 7.22688 7.65167 7.75029ZM5 5.93555C5.22102 5.93555 5.43298 5.84793 5.58926 5.69196C5.74554 5.53599 5.83333 5.32445 5.83333 5.10387C5.83333 4.88329 5.74554 4.67175 5.58926 4.51578C5.43298 4.35981 5.22102 4.27219 5 4.27219C4.77899 4.27219 4.56703 4.35981 4.41075 4.51578C4.25447 4.67175 4.16667 4.88329 4.16667 5.10387C4.16667 5.32445 4.25447 5.53599 4.41075 5.69196C4.56703 5.84793 4.77899 5.93555 5 5.93555Z" fill="black"/>
</g>
<defs>
<clipPath id="clip0_1_709">
<rect width="10" height="9.9802" fill="white" transform="translate(0 0.529297)"/>
</clipPath>
</defs>
</svg>
