<svg width="166" height="166" viewBox="0 0 166 166" fill="none" xmlns="http://www.w3.org/2000/svg">
<g clip-path="url(#clip0_1_636)">
<path d="M62.25 58.6672V107.333L103.957 83L62.25 58.6672ZM53.618 37.6267L126.298 80.0259C126.819 80.3308 127.251 80.7667 127.551 81.2903C127.852 81.8139 128.01 82.4069 128.01 83.0104C128.01 83.614 127.852 84.207 127.551 84.7306C127.251 85.2542 126.819 85.6901 126.298 85.995L53.618 128.394C53.0909 128.702 52.4918 128.864 51.8815 128.866C51.2713 128.867 50.6715 128.706 50.1433 128.401C49.615 128.095 49.177 127.655 48.8738 127.126C48.5705 126.596 48.4128 125.996 48.4167 125.385V40.6078C48.4165 39.9993 48.5769 39.4015 48.8816 38.8748C49.1864 38.3481 49.6247 37.9111 50.1523 37.608C50.68 37.3049 51.2782 37.1464 51.8867 37.1485C52.4952 37.1505 53.0924 37.3131 53.618 37.6198V37.6267Z" fill="white"/>
</g>
<defs>
<clipPath id="clip0_1_636">
<rect width="166" height="166" fill="white"/>
</clipPath>
</defs>
</svg>
