<svg width="166" height="166" viewBox="0 0 166 166" fill="none" xmlns="http://www.w3.org/2000/svg">
<g clip-path="url(#clip0_1_646)">
<path d="M62.25 58.6672V107.333L103.957 83L62.25 58.6672ZM53.618 37.6267L126.298 80.0258C126.819 80.3307 127.251 80.7666 127.551 81.2902C127.852 81.8138 128.01 82.4068 128.01 83.0104C128.01 83.6139 127.852 84.2069 127.551 84.7305C127.251 85.2541 126.819 85.69 126.298 85.9949L53.618 128.394C53.0909 128.702 52.4918 128.864 51.8815 128.865C51.2713 128.867 50.6715 128.706 50.1433 128.401C49.615 128.095 49.177 127.655 48.8738 127.126C48.5705 126.596 48.4128 125.996 48.4167 125.385V40.6077C48.4165 39.9992 48.5769 39.4014 48.8816 38.8747C49.1864 38.348 49.6247 37.9111 50.1523 37.608C50.68 37.3049 51.2782 37.1463 51.8867 37.1484C52.4952 37.1505 53.0924 37.313 53.618 37.6197V37.6267Z" fill="white"/>
</g>
<defs>
<clipPath id="clip0_1_646">
<rect width="166" height="166" fill="white"/>
</clipPath>
</defs>
</svg>
